<svg xmlns="http://www.w3.org/2000/svg" width="102.518" height="92.01" viewBox="0 0 102.518 92.01">
  <g id="crisis" transform="translate(-2.83 -4)">
    <path id="Trazado_2" data-name="Trazado 2" d="M44.275,9.842,5.132,77.639a9.685,9.685,0,0,0,8.387,14.528H91.8a9.685,9.685,0,0,0,8.387-14.528L61.049,9.842a9.685,9.685,0,0,0-16.775,0Z" transform="translate(1.427 1.421)" fill="#fac100"/>
    <path id="Trazado_3" data-name="Trazado 3" d="M79.3,57.734A62.956,62.956,0,0,1,22.725,22.412L5.132,52.892a9.685,9.685,0,0,0,8.387,14.528H91.8a9.685,9.685,0,0,0,8.925-13.433A62.8,62.8,0,0,1,79.3,57.734Z" transform="translate(1.427 26.169)" fill="#ff9500"/>
    <path id="Trazado_4" data-name="Trazado 4" d="M25.493,14H29.3a3.874,3.874,0,0,1,3.874,4.14l-1.9,28.547a3.882,3.882,0,0,1-7.748,0l-1.9-28.547A3.874,3.874,0,0,1,25.493,14Z" transform="translate(26.692 14.213)" fill="#2d4a60"/>
    <circle id="Elipse_4" data-name="Elipse 4" cx="6.053" cy="6.053" r="6.053" transform="translate(48.036 71.796)" fill="#2d4a60"/>
    <path id="Trazado_5" data-name="Trazado 5" d="M27.553,42.155a6.053,6.053,0,0,0,5.552-3.649,62.38,62.38,0,0,1-10.927-5.133A5.988,5.988,0,0,0,21.5,36.1a6.053,6.053,0,0,0,6.053,6.053Z" transform="translate(26.536 41.748)" fill="#263f52"/>
    <path id="Trazado_6" data-name="Trazado 6" d="M93.232,96.009H14.946A12.107,12.107,0,0,1,4.452,77.85L43.6,10.053a12.107,12.107,0,0,1,20.969,0l39.153,67.8a12.107,12.107,0,0,1-10.484,18.16ZM47.793,12.474,8.655,80.271a7.264,7.264,0,0,0,6.3,10.9H93.232a7.264,7.264,0,0,0,6.3-10.9l-39.143-67.8a7.264,7.264,0,0,0-12.591,0Z" transform="translate(0)"/>
    <path id="Trazado_7" data-name="Trazado 7" d="M28.822,54.162a6.317,6.317,0,0,1-6.3-5.884L20.621,19.722A6.3,6.3,0,0,1,26.919,13h3.806a6.3,6.3,0,0,1,6.3,6.722l-1.9,28.557A6.317,6.317,0,0,1,28.822,54.162Zm-1.9-36.32A1.453,1.453,0,0,0,25.467,19.4l1.9,28.554a1.453,1.453,0,0,0,2.906,0L32.181,19.4a1.453,1.453,0,0,0-1.453-1.559Z" transform="translate(25.266 12.791)"/>
    <path id="Trazado_8" data-name="Trazado 8" d="M28.975,47.949a8.475,8.475,0,1,1,8.475-8.475,8.475,8.475,0,0,1-8.475,8.475Zm0-12.107a3.632,3.632,0,1,0,3.632,3.632A3.632,3.632,0,0,0,28.975,35.843Z" transform="translate(25.114 38.375)"/>
  </g>
</svg>
