<svg xmlns="http://www.w3.org/2000/svg" width="860" height="836.007" viewBox="0 0 860 836.007">
  <g id="Grupo_1074502" data-name="Grupo 1074502" transform="translate(-370 -434.993)">
    <rect id="Rectángulo_376670" data-name="Rectángulo 376670" width="230.333" height="42" rx="5" transform="translate(685 525.244)" fill="#3ee2a8"/>
    <text id="Elicitación_de_requisitos" data-name="Elicitación de requisitos" transform="translate(800.5 552.244)" fill="#12263f" font-size="16" font-family="Roboto-Bold, Roboto" font-weight="700"><tspan x="-85.957" y="0">Elicitación de requisitos</tspan></text>
    <g id="Grupo_1" data-name="Grupo 1" transform="translate(-371.5 -813.445)">
      <path id="Trazado_819753" data-name="Trazado 819753" d="M-12330.816-9330.662v44.916" transform="translate(13502.333 10621.101)" fill="none" stroke="#273a89" stroke-width="1"/>
    </g>
    <path id="Trazado_772745" data-name="Trazado 772745" d="M5.749,1.64,0,0,5.735,8.894l.014-.018.014.018L11.5,0Z" transform="translate(794.345 516.351)" fill="#273a89"/>
    <g id="Grupo_1074496" data-name="Grupo 1074496" transform="translate(0 -7)">
      <g id="Grupo_2" data-name="Grupo 2" transform="translate(-371.5 -716.244)">
        <path id="Trazado_819753-2" data-name="Trazado 819753" d="M-12330.816-9330.662v35.377" transform="translate(13502.333 10621.101)" fill="none" stroke="#273a89" stroke-width="1"/>
      </g>
      <path id="Trazado_825145" data-name="Trazado 825145" d="M5.749,1.64,0,0,5.735,8.894l.014-.018.014.018L11.5,0Z" transform="translate(794.345 603.351)" fill="#273a89"/>
    </g>
    <g id="Grupo_1074497" data-name="Grupo 1074497" transform="translate(0 64)">
      <g id="Grupo_2-2" data-name="Grupo 2" transform="translate(-371.5 -716.244)">
        <path id="Trazado_819753-3" data-name="Trazado 819753" d="M-12330.816-9330.662v35.377" transform="translate(13502.333 10621.101)" fill="none" stroke="#273a89" stroke-width="1"/>
      </g>
      <path id="Trazado_825145-2" data-name="Trazado 825145" d="M5.749,1.64,0,0,5.735,8.894l.014-.018.014.018L11.5,0Z" transform="translate(794.345 603.351)" fill="#273a89"/>
    </g>
    <g id="Grupo_1074498" data-name="Grupo 1074498" transform="translate(0 193.11)">
      <g id="Grupo_2-3" data-name="Grupo 2" transform="translate(800.017 574.194)">
        <path id="Trazado_819753-4" data-name="Trazado 819753" d="M-12330.816-9330.662v22.679" transform="translate(12330.816 9330.662)" fill="none" stroke="#273a89" stroke-width="1"/>
      </g>
    </g>
    <g id="Grupo_2-4" data-name="Grupo 2" transform="translate(800.017 822.934)">
      <path id="Trazado_819753-5" data-name="Trazado 819753" d="M-12330.816-9330.663v46.041" transform="translate(12330.816 9330.663)" fill="none" stroke="#273a89" stroke-width="1"/>
    </g>
    <g id="Grupo_1074500" data-name="Grupo 1074500" transform="translate(475 846.297)">
      <path id="Trazado_819753-6" data-name="Trazado 819753" d="M-12330.816-9330.662v22.679" transform="translate(12330.816 9330.662)" fill="none" stroke="#273a89" stroke-width="1"/>
    </g>
    <g id="Grupo_1074501" data-name="Grupo 1074501" transform="translate(1125 846.297)">
      <path id="Trazado_819753-7" data-name="Trazado 819753" d="M-12330.816-9330.662v22.679" transform="translate(12330.816 9330.662)" fill="none" stroke="#273a89" stroke-width="1"/>
    </g>
    <text id="Se_refiere_a" data-name="Se refiere a" transform="translate(800.333 630.244)" fill="#12263f" font-size="16" font-family="Roboto-Regular, Roboto"><tspan x="-39.855" y="0">Se refiere a</tspan></text>
    <text id="A_través_de" data-name="A través de" transform="translate(800.333 808.934)" fill="#12263f" font-size="16" font-family="Roboto-Regular, Roboto"><tspan x="-39.625" y="0">A través de</tspan></text>
    <rect id="Rectángulo_382756" data-name="Rectángulo 382756" width="399.334" height="42" rx="5" transform="translate(600.666 434.993)" fill="#ffce00"/>
    <text id="La_fase_de_elicitación_de_requisitos" data-name="La fase de elicitación de requisitos" transform="translate(800.333 461.694)" font-size="16" font-family="Roboto-Bold, Roboto" font-weight="700"><tspan x="-124.805" y="0">La fase de elicitación de requisitos</tspan></text>
    <rect id="Rectángulo_382869" data-name="Rectángulo 382869" width="440.033" height="92" rx="5" transform="translate(580 676.244)" fill="#add3fd"/>
    <text id="Ganar_conocimientos_relevantes_del_problema_que_se_utilizarán_para_producir_una_especificación_formal_del_software_necesario_para_resolverlo." data-name="Ganar conocimientos relevantes del problema, que se utilizarán para producir una especificación formal del software necesario para resolverlo." transform="translate(613 686.244)" fill="#12263f" font-size="16" font-family="Roboto-Regular, Roboto"><tspan x="7.356" y="17">Ganar conocimientos relevantes del problema, que </tspan><tspan x="1.134" y="41">se utilizarán para producir una especificación formal </tspan><tspan x="49.505" y="65">del software necesario para resolverlo.</tspan></text>
    <rect id="Rectángulo_382870" data-name="Rectángulo 382870" width="210" height="42" rx="5" transform="translate(370 868.976)" fill="#1682fb"/>
    <rect id="Rectángulo_382871" data-name="Rectángulo 382871" width="210" height="61" rx="5" transform="translate(695 868.976)" fill="#1682fb"/>
    <rect id="Rectángulo_382872" data-name="Rectángulo 382872" width="210" height="61" rx="5" transform="translate(1020 868.976)" fill="#1682fb"/>
    <text id="Planeación_" data-name="Planeación " transform="translate(475.5 895.976)" fill="#fff" font-size="16" font-family="Roboto-Bold, Roboto" font-weight="700"><tspan x="-41.953" y="0">Planeación </tspan></text>
    <text id="Técnicas_e_instrumentos_para_elicitar_requisitos" data-name="Técnicas e instrumentos para elicitar requisitos" transform="translate(706 880.976)" fill="#fff" font-size="16" font-family="Roboto-Bold, Roboto" font-weight="700"><tspan x="5.805" y="17">Técnicas e instrumentos </tspan></text>
    <text id="Herramientas_para_captura_de_requisitos" data-name="Herramientas para captura de requisitos" transform="translate(1031 880.976)" fill="#fff" font-size="16" font-family="Roboto-Bold, Roboto" font-weight="700"><tspan x="27.684" y="17">Herramientas para </tspan></text>
    <g id="Grupo_1074499" data-name="Grupo 1074499" transform="translate(1124.999 845.611) rotate(90)">
      <path id="Trazado_819753-8" data-name="Trazado 819753" d="M-12330.816-9330.687v649.969" transform="translate(12330.816 9330.688)" fill="none" stroke="#273a89" stroke-width="1"/>
    </g>
    <path id="Trazado_819754" data-name="Trazado 819754" d="M2418.517,893.26v335.025" transform="translate(-2037.334 17.715)" fill="none" stroke="#273a89" stroke-width="1"/>
    <path id="Trazado_827355" data-name="Trazado 827355" d="M2418.517,893.26v191.525" transform="translate(-1712.333 35.715)" fill="none" stroke="#273a89" stroke-width="1"/>
    <path id="Trazado_827369" data-name="Trazado 827369" d="M2418.517,893.26v146.025" transform="translate(-1387.517 35.715)" fill="none" stroke="#273a89" stroke-width="1"/>
    <rect id="Rectángulo_376671" data-name="Rectángulo 376671" width="164.37" height="50" rx="5" transform="translate(415.63 927)" fill="#add3fd"/>
    <rect id="Rectángulo_382881" data-name="Rectángulo 382881" width="164.37" height="40" rx="5" transform="translate(740.63 945)" fill="#add3fd"/>
    <rect id="Rectángulo_382888" data-name="Rectángulo 382888" width="164.37" height="50" rx="5" transform="translate(1065.446 945)" fill="#add3fd"/>
    <rect id="Rectángulo_382882" data-name="Rectángulo 382882" width="164.37" height="40" rx="5" transform="translate(740.63 995)" fill="#add3fd"/>
    <rect id="Rectángulo_382887" data-name="Rectángulo 382887" width="164.37" height="40" rx="5" transform="translate(1065.446 1004.524)" fill="#add3fd"/>
    <rect id="Rectángulo_382883" data-name="Rectángulo 382883" width="164.37" height="40" rx="5" transform="translate(740.63 1045)" fill="#add3fd"/>
    <rect id="Rectángulo_382886" data-name="Rectángulo 382886" width="164.37" height="40" rx="5" transform="translate(1065.446 1054.5)" fill="#add3fd"/>
    <rect id="Rectángulo_382884" data-name="Rectángulo 382884" width="164.37" height="50" rx="5" transform="translate(740.63 1095)" fill="#add3fd"/>
    <rect id="Rectángulo_382876" data-name="Rectángulo 382876" width="164.37" height="50" rx="5" transform="translate(415.63 1221)" fill="#add3fd"/>
    <rect id="Rectángulo_382875" data-name="Rectángulo 382875" width="164.37" height="40" rx="5" transform="translate(415.63 1171)" fill="#add3fd"/>
    <rect id="Rectángulo_382873" data-name="Rectángulo 382873" width="164.37" height="72" rx="5" transform="translate(415.63 987)" fill="#add3fd"/>
    <rect id="Rectángulo_382874" data-name="Rectángulo 382874" width="164.37" height="92" rx="5" transform="translate(415.63 1069)" fill="#add3fd"/>
    <text id="Identificar_las_fuentes." data-name="Identificar las fuentes." transform="translate(426.464 932)" fill="#12263f" font-size="16" font-family="Roboto-Regular, Roboto"><tspan x="0" y="17">Identificar </tspan></text>
    <text id="Entrevista" transform="translate(751.464 956)" fill="#12263f" font-size="16" font-family="Roboto-Regular, Roboto"><tspan x="0" y="17">Entrevista</tspan></text>
    <text id="Diagrama_de_casos_de_uso" data-name="Diagrama de casos de uso" transform="translate(1076.28 951)" fill="#12263f" font-size="16" font-family="Roboto-Regular, Roboto"><tspan x="0" y="17">Diagrama de </tspan><tspan x="0" y="37">casos de uso</tspan></text>
    <text id="Encuesta_" data-name="Encuesta " transform="translate(751.464 1006)" fill="#12263f" font-size="16" font-family="Roboto-Regular, Roboto"><tspan x="0" y="17">Encuesta </tspan></text>
    <text id="Historias_de_usuario" data-name="Historias de usuario" transform="translate(1076.28 1015.524)" fill="#12263f" font-size="16" font-family="Roboto-Regular, Roboto"><tspan x="0" y="17">Historias de usuario</tspan></text>
    <text id="Observación" transform="translate(751.464 1056)" fill="#12263f" font-size="16" font-family="Roboto-Regular, Roboto"><tspan x="0" y="17">Observación</tspan></text>
    <text id="Storyboard" transform="translate(1076.28 1065.5)" fill="#12263f" font-size="16" font-family="Roboto-Regular, Roboto"><tspan x="0" y="17">Storyboard</tspan></text>
    <text id="Sesiones_grupales" data-name="Sesiones grupales" transform="translate(751.464 1101)" fill="#12263f" font-size="16" font-family="Roboto-Regular, Roboto"><tspan x="0" y="17">Sesiones </tspan><tspan x="0" y="37">grupales</tspan></text>
    <text id="Captura_de_interesados" data-name="Captura de interesados" transform="translate(426.464 1226)" fill="#12263f" font-size="16" font-family="Roboto-Regular, Roboto"><tspan x="0" y="17">Captura de </tspan></text>
    <text id="Revisar_técnicas." data-name="Revisar técnicas." transform="translate(426.464 1197)" fill="#12263f" font-size="16" font-family="Roboto-Regular, Roboto"><tspan x="0" y="0">Revisar técnicas.</tspan></text>
    <text id="Identificar_interesados_del_producto." data-name="Identificar interesados del producto." transform="translate(426.464 994)" fill="#12263f" font-size="16" font-family="Roboto-Regular, Roboto"><tspan x="0" y="17">Identificar </tspan><tspan x="0" y="37">interesados del </tspan></text>
    <text id="Matriz_stakeholders_Describir_necesidades_y_criterios_de_éxito_." data-name="Matriz stakeholders (Describir necesidades y criterios de éxito)." transform="translate(426.464 1075)" fill="#12263f" font-size="16" font-family="Roboto-Regular, Roboto"><tspan x="0" y="17">Matriz stakeholders </tspan><tspan x="0" y="37">(Describir </tspan><tspan x="0" y="57">necesidades y </tspan></text>
    <path id="Trazado_819756" data-name="Trazado 819756" d="M2418.833,929.8h30.886" transform="translate(-2037.334 21.696)" fill="none" stroke="#273a89" stroke-width="1"/>
    <path id="Trazado_827356" data-name="Trazado 827356" d="M2418.833,929.8h30.886" transform="translate(-1712.333 35.696)" fill="none" stroke="#273a89" stroke-width="1"/>
    <path id="Trazado_827371" data-name="Trazado 827371" d="M2418.833,929.8h30.886" transform="translate(-1387.517 40.696)" fill="none" stroke="#273a89" stroke-width="1"/>
    <path id="Trazado_827357" data-name="Trazado 827357" d="M2418.833,929.8h30.886" transform="translate(-1712.333 85.696)" fill="none" stroke="#273a89" stroke-width="1"/>
    <path id="Trazado_827366" data-name="Trazado 827366" d="M2418.833,929.8h30.886" transform="translate(-1387.517 95.221)" fill="none" stroke="#273a89" stroke-width="1"/>
    <path id="Trazado_827360" data-name="Trazado 827360" d="M2418.833,929.8h30.886" transform="translate(-1712.333 135.696)" fill="none" stroke="#273a89" stroke-width="1"/>
    <path id="Trazado_827367" data-name="Trazado 827367" d="M2418.833,929.8h30.886" transform="translate(-1387.517 145.196)" fill="none" stroke="#273a89" stroke-width="1"/>
    <path id="Trazado_827362" data-name="Trazado 827362" d="M2418.833,929.8h30.886" transform="translate(-1712.333 190.696)" fill="none" stroke="#273a89" stroke-width="1"/>
    <path id="Trazado_827345" data-name="Trazado 827345" d="M2418.833,929.8h30.886" transform="translate(-2037.334 315.696)" fill="none" stroke="#273a89" stroke-width="1"/>
    <path id="Trazado_827343" data-name="Trazado 827343" d="M2418.833,929.8h30.886" transform="translate(-2037.334 261.696)" fill="none" stroke="#273a89" stroke-width="1"/>
    <path id="Trazado_819757" data-name="Trazado 819757" d="M2418.833,929.8h30.886" transform="translate(-2037.334 82.918)" fill="none" stroke="#273a89" stroke-width="1"/>
    <path id="Trazado_819758" data-name="Trazado 819758" d="M2418.833,929.8h30.886" transform="translate(-2037.334 185.696)" fill="none" stroke="#273a89" stroke-width="1"/>
    <path id="Trazado_825095" data-name="Trazado 825095" d="M5.749,7.254,0,8.894,5.735,0l.014.018L5.763,0,11.5,8.894Z" transform="translate(415.63 946) rotate(90)" fill="#273a89"/>
    <path id="Trazado_827354" data-name="Trazado 827354" d="M5.749,7.254,0,8.894,5.735,0l.014.018L5.763,0,11.5,8.894Z" transform="translate(740.63 959) rotate(90)" fill="#273a89"/>
    <path id="Trazado_827370" data-name="Trazado 827370" d="M5.749,7.254,0,8.894,5.735,0l.014.018L5.763,0,11.5,8.894Z" transform="translate(1065.446 964) rotate(90)" fill="#273a89"/>
    <path id="Trazado_827358" data-name="Trazado 827358" d="M5.749,7.254,0,8.894,5.735,0l.014.018L5.763,0,11.5,8.894Z" transform="translate(740.63 1009) rotate(90)" fill="#273a89"/>
    <path id="Trazado_827363" data-name="Trazado 827363" d="M5.749,7.254,0,8.894,5.735,0l.014.018L5.763,0,11.5,8.894Z" transform="translate(1065.446 1018.524) rotate(90)" fill="#273a89"/>
    <path id="Trazado_827359" data-name="Trazado 827359" d="M5.749,7.254,0,8.894,5.735,0l.014.018L5.763,0,11.5,8.894Z" transform="translate(740.63 1059) rotate(90)" fill="#273a89"/>
    <path id="Trazado_827364" data-name="Trazado 827364" d="M5.749,7.254,0,8.894,5.735,0l.014.018L5.763,0,11.5,8.894Z" transform="translate(1065.446 1068.5) rotate(90)" fill="#273a89"/>
    <path id="Trazado_827361" data-name="Trazado 827361" d="M5.749,7.254,0,8.894,5.735,0l.014.018L5.763,0,11.5,8.894Z" transform="translate(740.63 1114) rotate(90)" fill="#273a89"/>
    <path id="Trazado_827344" data-name="Trazado 827344" d="M5.749,7.254,0,8.894,5.735,0l.014.018L5.763,0,11.5,8.894Z" transform="translate(415.63 1240) rotate(90)" fill="#273a89"/>
    <path id="Trazado_827342" data-name="Trazado 827342" d="M5.749,7.254,0,8.894,5.735,0l.014.018L5.763,0,11.5,8.894Z" transform="translate(415.63 1185) rotate(90)" fill="#273a89"/>
    <path id="Trazado_825096" data-name="Trazado 825096" d="M5.749,7.254,0,8.894,5.735,0l.014.018L5.763,0,11.5,8.894Z" transform="translate(415.63 1006.973) rotate(90)" fill="#273a89"/>
    <path id="Trazado_825097" data-name="Trazado 825097" d="M5.749,7.254,0,8.894,5.735,0l.014.018L5.763,0,11.5,8.894Z" transform="translate(415.63 1109) rotate(90)" fill="#273a89"/>
  </g>
</svg>
